# xmcd
#
# Track frame offsets: 
#        150
#        22314
#        43780
#        60642
#        81422
#        95285
#        116360
#        133258
#        146668
#        171174
#        187086
#
# Disc length: 2676 seconds
#
# Revision: 0
# Processed by: cddbd v1.5.2PL0 Copyright (c) Steve Scherf et al.
# Submitted via: ExactAudioCopy v1.0b3
#
DISCID=a20a720b
DTITLE=Zac Brown Band - Uncaged
DYEAR=2012
DGENRE=Country
TTITLE0=Jump Right In
TTITLE1=Uncaged
TTITLE2=Goodbye In Her Eyes
TTITLE3=The Wind
TTITLE4=Island Song
TTITLE5=Sweet Annie
TTITLE6=Natural Disaster
TTITLE7=Overnight (Feat. Trombone Shorty
TTITLE8=Lance's Song
TTITLE9=The Day That I Die (Feat. Amos Lee)
TTITLE10=Last But Not Least
EXTD=
EXTT0=
EXTT1=
EXTT2=
EXTT3=
EXTT4=
EXTT5=
EXTT6=
EXTT7=
EXTT8=
EXTT9=
EXTT10=
PLAYORDER=
